<svg id="Layer_1" data-name="Layer 1" xmlns="http://www.w3.org/2000/svg" xmlns:xlink="http://www.w3.org/1999/xlink" viewBox="0 0 1000.5 423.37"><defs><style>.cls-1{fill:#fff;}.cls-2{fill:url(#linear-gradient);}.cls-3{fill:#111c1e;}.cls-4{fill:#219fa5;}.cls-5{fill:#73c9c9;}.cls-6{fill:#a6e8e6;}.cls-7{fill:url(#linear-gradient-2);}.cls-8{fill:#1b514f;opacity:0.16;}</style><linearGradient id="linear-gradient" x1="350.13" y1="350.02" x2="5.3" y2="13.98" gradientUnits="userSpaceOnUse"><stop offset="0.04" stop-color="#3ebbb1"/><stop offset="0.46" stop-color="#31ca86"/><stop offset="0.49" stop-color="#30cb82"/><stop offset="0.65" stop-color="#2ad171"/><stop offset="0.76" stop-color="#28d36b"/><stop offset="0.82" stop-color="#2ed46f"/><stop offset="0.89" stop-color="#40d77b"/><stop offset="0.98" stop-color="#5edd8f"/><stop offset="1" stop-color="#64de93"/></linearGradient><linearGradient id="linear-gradient-2" x1="264.1" y1="336.9" x2="207.73" y2="448.91" gradientUnits="userSpaceOnUse"><stop offset="0.04" stop-color="#006674"/><stop offset="0.46" stop-color="#219fa5"/><stop offset="0.64" stop-color="#34b1a3"/><stop offset="0.79" stop-color="#3ebba2"/></linearGradient></defs><title>Skript-Hub_logo_version-1_original_white-text</title><path class="cls-1" d="M391.12,164l17.36-20.75c9.51,8.28,21.85,14,32.86,14,12.62,0,18.8-5,18.8-12.91,0-8.42-7.61-11.13-19.29-15.93L423.47,121c-13.86-5.64-27-17-27-36.46,0-22.16,19.8-39.86,47.64-39.86a61.83,61.83,0,0,1,43,17.53L471.88,81.26c-8.82-6.76-17.19-10.47-27.77-10.47-10.42,0-17.06,4.34-17.06,12,0,8.2,8.75,11.18,20.43,15.83l17,6.91c16.33,6.6,26.53,17.48,26.53,36.38,0,22.21-18.52,41.46-50.39,41.46A73.63,73.63,0,0,1,391.12,164Z"/><path class="cls-1" d="M502.44,47.14h30.24v54.65h.74L573.3,47.14h33.23l-40.46,53.38L614,180.89H580.8l-32.51-56.5-15.61,20.66v35.84H502.44Z"/><path class="cls-1" d="M624,47.14h48.17c28.37,0,51.63,9.85,51.63,41.65,0,30.74-23.26,44-51.63,44H654.24v48.13H624Zm45.71,61.61c15.91,0,24.45-6.8,24.45-20s-8.54-17.64-24.45-17.64H654.24v37.6Zm-3.07,16,20.92-19.35,42.68,75.45H696.41Z"/><path class="cls-1" d="M740.28,47.14h30.24V180.89H740.28Z"/><path class="cls-1" d="M788.2,47.14h45.95c29.44,0,53.17,10.53,53.17,43,0,31.43-24,45.34-52.35,45.34H818.44v45.38H788.2Zm45,64.36c16.63,0,24.5-7.41,24.5-21.33s-9-19-25.32-19H818.44V111.5Z"/><path class="cls-1" d="M933.45,72.5H896.63V47.14H1000.5V72.5H963.68V180.89H933.45Z"/><path class="cls-1" d="M391.12,192.65h30.24v51.54h46.17V192.65h30.24V326.41H467.53V270.57H421.36v55.84H391.12Z"/><path class="cls-1" d="M510.17,264.42V192.65h30.24v74.87c0,26.19,8.25,35.24,23.22,35.24s23.7-9.05,23.7-35.24V192.65h29.15v71.77c0,44.91-18.25,64.45-52.85,64.45S510.17,309.33,510.17,264.42Z"/><path class="cls-1" d="M629.2,192.65H675c27.77,0,49.33,7.63,49.33,33.18,0,12-6.71,24.77-17.62,28.87v.82c13.66,3.55,24.21,13.62,24.21,31.48,0,27.21-23,39.41-52.1,39.41H629.2Zm44.38,53.57c14.67,0,21.17-6.2,21.17-15.93,0-10.3-6.86-14.31-21-14.31H659.44v30.24Zm2.75,56.85c16.49,0,25-5.86,25-18,0-11.73-8.38-16.51-25-16.51H659.44v34.53Z"/><rect class="cls-2" x="10.31" y="14.47" width="344.43" height="344.43"/><rect class="cls-3" x="58.98" y="63.14" width="247.09" height="247.09"/><path class="cls-4" d="M59,.52h0a91.62,91.62,0,0,0-48.67,14V171.23a91.62,91.62,0,0,0,48.67,14h0c50.79,0,92.34-41.55,92.34-92.34h0C151.32,42.08,109.77.52,59,.52Z"/><circle class="cls-5" cx="58.98" cy="92.87" r="58.48"/><circle class="cls-6" cx="58.98" cy="92.87" r="25.61"/><polygon class="cls-7" points="354.74 358.9 151.32 424.37 151.32 358.9 354.74 358.9"/><path class="cls-5" d="M146.85,278.08l10.64-12.71c5.83,5.07,13.39,8.57,20.13,8.57,7.74,0,11.53-3.05,11.53-7.92,0-5.16-4.66-6.81-11.82-9.76l-10.66-4.54c-8.49-3.46-16.54-10.43-16.54-22.34,0-13.59,12.13-24.44,29.2-24.44a37.92,37.92,0,0,1,26.37,10.75l-9.36,11.68c-5.4-4.15-10.53-6.42-17-6.42s-10.46,2.66-10.46,7.35c0,5,5.36,6.85,12.52,9.7l10.44,4.23c10,4.05,16.26,10.71,16.26,22.3,0,13.61-11.35,25.41-30.88,25.41A45.1,45.1,0,0,1,146.85,278.08Z"/><path class="cls-5" d="M216.06,206.45h18.53V240h.46l24.43-33.5h20.37l-24.8,32.72,29.36,49.26H264.08L244.16,253.8l-9.57,12.66v22H216.06Z"/><polygon class="cls-8" points="151.32 358.9 354.74 358.9 331.11 366.5 151.32 379.73 151.32 358.9"/></svg>